<?xml version="1.0" encoding="utf-8" standalone="no"?>
<!DOCTYPE svg PUBLIC "-//W3C//DTD SVG 1.1//EN"
  "http://www.w3.org/Graphics/SVG/1.1/DTD/svg11.dtd">
<svg height="72pt" version="1.1" viewBox="0 0 72 72" width="72pt" xmlns="http://www.w3.org/2000/svg" xmlns:xlink="http://www.w3.org/1999/xlink">
 <metadata>
  <rdf:RDF xmlns:cc="http://creativecommons.org/ns#" xmlns:dc="http://purl.org/dc/elements/1.1/" xmlns:rdf="http://www.w3.org/1999/02/22-rdf-syntax-ns#">
   <cc:Work>
    <dc:type rdf:resource="http://purl.org/dc/dcmitype/StillImage"/>
    <dc:date>2021-06-23T12:07:53.538996</dc:date>
    <dc:format>image/svg+xml</dc:format>
    <dc:creator>
     <cc:Agent>
      <dc:title>Matplotlib v3.4.1, https://matplotlib.org/</dc:title>
     </cc:Agent>
    </dc:creator>
   </cc:Work>
  </rdf:RDF>
 </metadata>
 <defs>
  <style type="text/css">*{stroke-linecap:butt;stroke-linejoin:round;}</style>
 </defs>
 <g id="figure_1">
  <g id="patch_1">
   <path d="M 0 72 
L 72 72 
L 72 0 
L 0 0 
z
" style="fill:none;"/>
  </g>
  <g id="axes_1">
   <g id="PathCollection_1">
    <path clip-path="url(#pb957f2680f)" d="M 55.741014 70.153846 
L 57.230769 70.695719 
L 59.076923 70.960554 
L 60.923077 70.903882 
L 62.769231 70.496011 
L 63.541065 70.153846 
L 64.615385 69.595755 
L 65.970977 68.307692 
L 66.461538 67.549842 
L 67.003768 66.461538 
L 67.494078 64.615385 
L 67.664386 62.769231 
L 67.584483 60.923077 
L 67.220675 59.076923 
L 66.461538 57.298364 
L 66.434978 57.230769 
L 65.26001 55.384615 
L 64.615385 54.687691 
L 63.628284 53.538462 
L 62.769231 52.670711 
L 61.918736 51.692308 
L 60.923077 50.499227 
L 60.451316 49.846154 
L 59.298408 48 
L 59.076923 47.572856 
L 58.391182 46.153846 
L 57.656341 44.307692 
L 57.230769 42.912715 
L 57.091544 42.461538 
L 56.757486 40.615385 
L 56.716545 38.769231 
L 57.01012 36.923077 
L 57.230769 36.278027 
L 57.650137 35.076923 
L 58.615677 33.230769 
L 59.076923 32.554514 
L 59.947903 31.384615 
L 60.923077 30.296577 
L 61.719996 29.538462 
L 62.769231 28.623498 
L 64.054866 27.692308 
L 64.615385 27.268132 
L 66.461538 26.049878 
L 66.807522 25.846154 
L 68.307692 24.678868 
L 69.136142 24 
L 70.153846 22.624035 
L 70.47518 22.153846 
L 71.132886 20.307692 
L 71.304707 18.461538 
L 71.063384 16.615385 
L 70.290471 14.769231 
L 70.153846 14.583532 
L 68.680563 12.923077 
L 68.307692 12.647206 
L 66.461538 11.581948 
L 65.058694 11.076923 
L 64.615385 10.930833 
L 62.769231 10.62933 
L 60.923077 10.715846 
L 59.685294 11.076923 
L 59.076923 11.233963 
L 57.230769 12.124199 
L 56.068404 12.923077 
L 55.384615 13.348326 
L 53.538462 14.67224 
L 53.40536 14.769231 
L 51.692308 15.90795 
L 50.481577 16.615385 
L 49.846154 16.971589 
L 48 17.76177 
L 46.153846 18.234596 
L 44.307692 18.295069 
L 42.461538 17.811718 
L 40.615385 16.635634 
L 40.594039 16.615385 
L 39.034924 14.769231 
L 38.769231 14.36337 
L 37.981636 12.923077 
L 37.178028 11.076923 
L 36.923077 10.388624 
L 36.488654 9.230769 
L 35.834507 7.384615 
L 35.119276 5.538462 
L 35.076923 5.439338 
L 34.043047 3.692308 
L 33.230769 2.766361 
L 31.781986 1.846154 
L 31.384615 1.661599 
L 29.538462 1.169902 
L 27.692308 0.948373 
L 25.846154 0.893972 
L 24 0.981973 
L 22.153846 1.245747 
L 20.307692 1.81736 
L 20.252292 1.846154 
L 18.589185 3.692308 
L 18.461538 4.6413 
L 18.384702 5.538462 
L 18.461538 5.969137 
L 18.698908 7.384615 
L 19.233653 9.230769 
L 19.812772 11.076923 
L 20.307692 12.810794 
L 20.340326 12.923077 
L 20.73063 14.769231 
L 20.856392 16.615385 
L 20.595071 18.461538 
L 20.307692 19.151488 
L 19.659537 20.307692 
L 18.461538 21.441729 
L 16.950405 22.153846 
L 16.615385 22.276042 
L 14.769231 22.492824 
L 12.923077 22.369323 
L 11.725973 22.153846 
L 11.076923 22.042946 
L 9.230769 21.649367 
L 7.384615 21.274053 
L 5.538462 21.031973 
L 3.692308 21.122962 
L 1.846154 22.011014 
L 1.712697 22.153846 
L 0.774598 24 
L 0.41804 25.846154 
L 0.361747 27.692308 
L 0.551261 29.538462 
L 1.057773 31.384615 
L 1.846154 32.79321 
L 2.175713 33.230769 
L 3.692308 34.459674 
L 4.735713 35.076923 
L 5.538462 35.446479 
L 7.384615 36.271225 
L 8.657948 36.923077 
L 9.230769 37.224546 
L 11.076923 38.564643 
L 11.282241 38.769231 
L 12.662029 40.615385 
L 12.923077 41.216276 
L 13.352478 42.461538 
L 13.547085 44.307692 
L 13.322226 46.153846 
L 12.923077 47.344142 
L 12.666287 48 
L 11.581146 49.846154 
L 11.076923 50.564429 
L 10.141397 51.692308 
L 9.230769 52.866669 
L 8.621241 53.538462 
L 7.430009 55.384615 
L 7.384615 55.523357 
L 6.727146 57.230769 
L 6.732671 59.076923 
L 7.384615 60.754245 
L 7.444607 60.923077 
L 8.757466 62.769231 
L 9.230769 63.226465 
L 10.770764 64.615385 
L 11.076923 64.855179 
L 12.923077 66.120492 
L 13.576636 66.461538 
L 14.769231 67.143257 
L 16.615385 67.808624 
L 18.461538 67.975777 
L 20.307692 67.391321 
L 21.317212 66.461538 
L 22.153846 65.698772 
L 22.903708 64.615385 
L 24 63.142225 
L 24.236021 62.769231 
L 25.592651 60.923077 
L 25.846154 60.616005 
L 27.183504 59.076923 
L 27.692308 58.538977 
L 29.123129 57.230769 
L 29.538462 56.857629 
L 31.384615 55.538764 
L 31.712847 55.384615 
L 33.230769 54.659889 
L 35.076923 54.343187 
L 36.923077 54.645241 
L 38.515599 55.384615 
L 38.769231 55.500731 
L 40.615385 56.715426 
L 41.296697 57.230769 
L 42.461538 58.06088 
L 43.823828 59.076923 
L 44.307692 59.440746 
L 46.153846 60.8959 
L 46.186872 60.923077 
L 48 62.620758 
L 48.152953 62.769231 
L 49.761712 64.615385 
L 49.846154 64.732976 
L 51.241572 66.461538 
L 51.692308 67.066499 
L 52.932837 68.307692 
L 53.538462 68.910965 
L 55.384615 70.034735 
z
M 55.384615 65.083812 
L 54.744934 64.615385 
L 53.538462 63.704945 
L 52.566157 62.769231 
L 51.692308 61.9713 
L 50.610324 60.923077 
L 49.846154 60.264828 
L 48.427306 59.076923 
L 48 58.75025 
L 46.153846 57.35258 
L 45.994216 57.230769 
L 44.307692 55.909059 
L 43.650805 55.384615 
L 42.461538 54.362742 
L 41.459892 53.538462 
L 40.615385 52.823371 
L 38.978365 51.692308 
L 38.769231 51.55792 
L 36.923077 50.792831 
L 35.076923 50.533254 
L 33.230769 50.795794 
L 31.384615 51.579108 
L 31.210689 51.692308 
L 29.538462 52.864602 
L 28.763646 53.538462 
L 27.692308 54.49132 
L 26.783716 55.384615 
L 25.846154 56.334997 
L 24.998413 57.230769 
L 24 58.360635 
L 23.341712 59.076923 
L 22.153846 60.458203 
L 21.663316 60.923077 
L 20.307692 62.19957 
L 19.255493 62.769231 
L 18.461538 63.167644 
L 16.615385 63.31118 
L 14.769231 62.784589 
L 14.742594 62.769231 
L 12.923077 61.459222 
L 12.404837 60.923077 
L 11.393022 59.076923 
L 11.222035 57.230769 
L 11.740417 55.384615 
L 12.716792 53.538462 
L 12.923077 53.23162 
L 13.884964 51.692308 
L 14.769231 50.129421 
L 14.919131 49.846154 
L 15.691085 48 
L 16.142652 46.153846 
L 16.297936 44.307692 
L 16.164315 42.461538 
L 15.731743 40.615385 
L 14.969774 38.769231 
L 14.769231 38.403145 
L 13.734561 36.923077 
L 12.923077 35.990397 
L 11.812067 35.076923 
L 11.076923 34.481824 
L 9.230769 33.349532 
L 9.018122 33.230769 
L 7.384615 32.057542 
L 6.53366 31.384615 
L 5.538462 30.05001 
L 5.228213 29.538462 
L 4.929453 27.692308 
L 5.538462 26.021305 
L 5.669896 25.846154 
L 7.384615 25.105594 
L 9.230769 25.019932 
L 11.076923 25.208545 
L 12.923077 25.445682 
L 14.769231 25.588054 
L 16.615385 25.507823 
L 18.461538 25.064378 
L 20.307692 24.112935 
L 20.453768 24 
L 22.153846 22.36956 
L 22.331126 22.153846 
L 23.354522 20.307692 
L 23.833957 18.461538 
L 23.915461 16.615385 
L 23.734369 14.769231 
L 23.400498 12.923077 
L 23.017903 11.076923 
L 22.73234 9.230769 
L 22.830363 7.384615 
L 23.971766 5.538462 
L 24 5.518217 
L 25.846154 4.910557 
L 27.692308 4.907215 
L 29.538462 5.428113 
L 29.722707 5.538462 
L 31.384615 6.832871 
L 31.81958 7.384615 
L 32.953986 9.230769 
L 33.230769 9.768336 
L 33.761123 11.076923 
L 34.493749 12.923077 
L 35.076923 14.207378 
L 35.317788 14.769231 
L 36.309677 16.615385 
L 36.923077 17.460141 
L 37.724481 18.461538 
L 38.769231 19.458836 
L 39.946288 20.307692 
L 40.615385 20.70576 
L 42.461538 21.3739 
L 44.307692 21.571422 
L 46.153846 21.366392 
L 48 20.829925 
L 49.184451 20.307692 
L 49.846154 20.026676 
L 51.692308 19.054123 
L 52.670158 18.461538 
L 53.538462 17.937192 
L 55.384615 16.787729 
L 55.694367 16.615385 
L 57.230769 15.768922 
L 59.076923 15.008857 
L 60.36404 14.769231 
L 60.923077 14.66881 
L 61.91839 14.769231 
L 62.769231 14.888145 
L 64.615385 15.95499 
L 65.255569 16.615385 
L 65.988441 18.461538 
L 65.834771 20.307692 
L 64.947853 22.153846 
L 64.615385 22.540944 
L 63.370868 24 
L 62.769231 24.531509 
L 61.394993 25.846154 
L 60.923077 26.254445 
L 59.458142 27.692308 
L 59.076923 28.076755 
L 57.777026 29.538462 
L 57.230769 30.225306 
L 56.359019 31.384615 
L 55.384615 32.922069 
L 55.191967 33.230769 
L 54.267907 35.076923 
L 53.63481 36.923077 
L 53.538462 37.501621 
L 53.328996 38.769231 
L 53.374251 40.615385 
L 53.538462 41.408203 
L 53.755238 42.461538 
L 54.391863 44.307692 
L 55.199534 46.153846 
L 55.384615 46.526554 
L 56.087329 48 
L 57.074592 49.846154 
L 57.230769 50.113174 
L 58.203482 51.692308 
L 59.076923 52.938865 
L 59.535349 53.538462 
L 60.923077 55.320377 
L 60.975683 55.384615 
L 62.223383 57.230769 
L 62.769231 58.397083 
L 63.070086 59.076923 
L 63.39289 60.923077 
L 63.19023 62.769231 
L 62.769231 63.741362 
L 62.168267 64.615385 
L 60.923077 65.591272 
L 59.076923 66.083742 
L 57.230769 65.877137 
z
" style="fill:#1a9641;"/>
   </g>
   <g id="PathCollection_2">
    <path clip-path="url(#pb957f2680f)" d="M 54.744934 64.615385 
L 55.384615 65.083812 
L 57.230769 65.877137 
L 59.076923 66.083742 
L 60.923077 65.591272 
L 62.168267 64.615385 
L 62.769231 63.741362 
L 63.19023 62.769231 
L 63.39289 60.923077 
L 63.070086 59.076923 
L 62.769231 58.397083 
L 62.223383 57.230769 
L 60.975683 55.384615 
L 60.923077 55.320377 
L 59.535349 53.538462 
L 59.076923 52.938865 
L 58.203482 51.692308 
L 57.230769 50.113174 
L 57.074592 49.846154 
L 56.087329 48 
L 55.384615 46.526554 
L 55.199534 46.153846 
L 54.391863 44.307692 
L 53.755238 42.461538 
L 53.538462 41.408203 
L 53.374251 40.615385 
L 53.328996 38.769231 
L 53.538462 37.501621 
L 53.63481 36.923077 
L 54.267907 35.076923 
L 55.191967 33.230769 
L 55.384615 32.922069 
L 56.359019 31.384615 
L 57.230769 30.225306 
L 57.777026 29.538462 
L 59.076923 28.076755 
L 59.458142 27.692308 
L 60.923077 26.254445 
L 61.394993 25.846154 
L 62.769231 24.531509 
L 63.370868 24 
L 64.615385 22.540944 
L 64.947853 22.153846 
L 65.834771 20.307692 
L 65.988441 18.461538 
L 65.255569 16.615385 
L 64.615385 15.95499 
L 62.769231 14.888145 
L 61.91839 14.769231 
L 60.923077 14.66881 
L 60.36404 14.769231 
L 59.076923 15.008857 
L 57.230769 15.768922 
L 55.694367 16.615385 
L 55.384615 16.787729 
L 53.538462 17.937192 
L 52.670158 18.461538 
L 51.692308 19.054123 
L 49.846154 20.026676 
L 49.184451 20.307692 
L 48 20.829925 
L 46.153846 21.366392 
L 44.307692 21.571422 
L 42.461538 21.3739 
L 40.615385 20.70576 
L 39.946288 20.307692 
L 38.769231 19.458836 
L 37.724481 18.461538 
L 36.923077 17.460141 
L 36.309677 16.615385 
L 35.317788 14.769231 
L 35.076923 14.207378 
L 34.493749 12.923077 
L 33.761123 11.076923 
L 33.230769 9.768336 
L 32.953986 9.230769 
L 31.81958 7.384615 
L 31.384615 6.832871 
L 29.722707 5.538462 
L 29.538462 5.428113 
L 27.692308 4.907215 
L 25.846154 4.910557 
L 24 5.518217 
L 23.971766 5.538462 
L 22.830363 7.384615 
L 22.73234 9.230769 
L 23.017903 11.076923 
L 23.400498 12.923077 
L 23.734369 14.769231 
L 23.915461 16.615385 
L 23.833957 18.461538 
L 23.354522 20.307692 
L 22.331126 22.153846 
L 22.153846 22.36956 
L 20.453768 24 
L 20.307692 24.112935 
L 18.461538 25.064378 
L 16.615385 25.507823 
L 14.769231 25.588054 
L 12.923077 25.445682 
L 11.076923 25.208545 
L 9.230769 25.019932 
L 7.384615 25.105594 
L 5.669896 25.846154 
L 5.538462 26.021305 
L 4.929453 27.692308 
L 5.228213 29.538462 
L 5.538462 30.05001 
L 6.53366 31.384615 
L 7.384615 32.057542 
L 9.018122 33.230769 
L 9.230769 33.349532 
L 11.076923 34.481824 
L 11.812067 35.076923 
L 12.923077 35.990397 
L 13.734561 36.923077 
L 14.769231 38.403145 
L 14.969774 38.769231 
L 15.731743 40.615385 
L 16.164315 42.461538 
L 16.297936 44.307692 
L 16.142652 46.153846 
L 15.691085 48 
L 14.919131 49.846154 
L 14.769231 50.129421 
L 13.884964 51.692308 
L 12.923077 53.23162 
L 12.716792 53.538462 
L 11.740417 55.384615 
L 11.222035 57.230769 
L 11.393022 59.076923 
L 12.404837 60.923077 
L 12.923077 61.459222 
L 14.742594 62.769231 
L 14.769231 62.784589 
L 16.615385 63.31118 
L 18.461538 63.167644 
L 19.255493 62.769231 
L 20.307692 62.19957 
L 21.663316 60.923077 
L 22.153846 60.458203 
L 23.341712 59.076923 
L 24 58.360635 
L 24.998413 57.230769 
L 25.846154 56.334997 
L 26.783716 55.384615 
L 27.692308 54.49132 
L 28.763646 53.538462 
L 29.538462 52.864602 
L 31.210689 51.692308 
L 31.384615 51.579108 
L 33.230769 50.795794 
L 35.076923 50.533254 
L 36.923077 50.792831 
L 38.769231 51.55792 
L 38.978365 51.692308 
L 40.615385 52.823371 
L 41.459892 53.538462 
L 42.461538 54.362742 
L 43.650805 55.384615 
L 44.307692 55.909059 
L 45.994216 57.230769 
L 46.153846 57.35258 
L 48 58.75025 
L 48.427306 59.076923 
L 49.846154 60.264828 
L 50.610324 60.923077 
L 51.692308 61.9713 
L 52.566157 62.769231 
L 53.538462 63.704945 
z
M 53.538462 57.977107 
L 52.180864 57.230769 
L 51.692308 56.999274 
L 49.846154 55.920467 
L 48.998068 55.384615 
L 48 54.75264 
L 46.297314 53.538462 
L 46.153846 53.428705 
L 44.307692 51.82342 
L 44.161516 51.692308 
L 42.461538 50.186375 
L 42.024126 49.846154 
L 40.615385 48.888787 
L 38.769231 48.001998 
L 38.762829 48 
L 36.923077 47.496424 
L 35.076923 47.303263 
L 33.230769 47.424393 
L 31.384615 47.890691 
L 31.116703 48 
L 29.538462 48.766073 
L 27.920255 49.846154 
L 27.692308 50.021556 
L 25.846154 51.553533 
L 25.664018 51.692308 
L 24 53.165247 
L 23.511667 53.538462 
L 22.153846 54.761348 
L 21.292097 55.384615 
L 20.307692 56.195554 
L 18.461538 57.063663 
L 17.141455 55.384615 
L 17.555369 53.538462 
L 18.125731 51.692308 
L 18.461538 50.479228 
L 18.651941 49.846154 
L 19.052824 48 
L 19.225241 46.153846 
L 19.204761 44.307692 
L 19.006119 42.461538 
L 18.64207 40.615385 
L 18.461538 39.937225 
L 18.150707 38.769231 
L 17.536724 36.923077 
L 16.844548 35.076923 
L 16.615385 34.267325 
L 16.188963 33.230769 
L 16.055871 31.384615 
L 16.615385 30.736479 
L 17.769161 29.538462 
L 18.461538 29.215784 
L 20.307692 28.047262 
L 20.739547 27.692308 
L 22.153846 26.679747 
L 23.083491 25.846154 
L 24 24.957145 
L 24.919334 24 
L 25.846154 22.778357 
L 26.40419 22.153846 
L 27.585345 20.307692 
L 27.692308 20.028961 
L 28.95033 18.461538 
L 29.538462 17.473188 
L 31.384615 17.928665 
L 31.846629 18.461538 
L 33.230769 19.38631 
L 34.183254 20.307692 
L 35.076923 20.912473 
L 36.698528 22.153846 
L 36.923077 22.290414 
L 38.769231 23.389774 
L 40.096475 24 
L 40.615385 24.220294 
L 42.461538 24.725764 
L 44.307692 24.912812 
L 46.153846 24.789184 
L 48 24.370532 
L 49.041031 24 
L 49.846154 23.731269 
L 51.692308 23.010267 
L 53.421151 22.153846 
L 53.538462 22.099973 
L 55.384615 21.457939 
L 57.230769 21.122244 
L 58.244733 22.153846 
L 57.471298 24 
L 57.230769 24.303756 
L 56.147493 25.846154 
L 55.384615 26.88342 
L 54.846541 27.692308 
L 53.643055 29.538462 
L 53.538462 29.70017 
L 52.494157 31.384615 
L 51.692308 32.958434 
L 51.562234 33.230769 
L 50.804762 35.076923 
L 50.28609 36.923077 
L 50.005183 38.769231 
L 49.985846 40.615385 
L 50.251303 42.461538 
L 50.808769 44.307692 
L 51.654062 46.153846 
L 51.692308 46.22832 
L 52.512264 48 
L 53.440906 49.846154 
L 53.538462 50.061484 
L 54.234582 51.692308 
L 55.072346 53.538462 
L 55.384615 54.281025 
L 55.874928 55.384615 
L 56.526962 57.230769 
L 55.384615 58.854805 
z
" style="fill:#a6d96a;"/>
   </g>
   <g id="PathCollection_3">
    <path clip-path="url(#pb957f2680f)" d="M 52.180864 57.230769 
L 53.538462 57.977107 
L 55.384615 58.854805 
L 56.526962 57.230769 
L 55.874928 55.384615 
L 55.384615 54.281025 
L 55.072346 53.538462 
L 54.234582 51.692308 
L 53.538462 50.061484 
L 53.440906 49.846154 
L 52.512264 48 
L 51.692308 46.22832 
L 51.654062 46.153846 
L 50.808769 44.307692 
L 50.251303 42.461538 
L 49.985846 40.615385 
L 50.005183 38.769231 
L 50.28609 36.923077 
L 50.804762 35.076923 
L 51.562234 33.230769 
L 51.692308 32.958434 
L 52.494157 31.384615 
L 53.538462 29.70017 
L 53.643055 29.538462 
L 54.846541 27.692308 
L 55.384615 26.88342 
L 56.147493 25.846154 
L 57.230769 24.303756 
L 57.471298 24 
L 58.244733 22.153846 
L 57.230769 21.122244 
L 55.384615 21.457939 
L 53.538462 22.099973 
L 53.421151 22.153846 
L 51.692308 23.010267 
L 49.846154 23.731269 
L 49.041031 24 
L 48 24.370532 
L 46.153846 24.789184 
L 44.307692 24.912812 
L 42.461538 24.725764 
L 40.615385 24.220294 
L 40.096475 24 
L 38.769231 23.389774 
L 36.923077 22.290414 
L 36.698528 22.153846 
L 35.076923 20.912473 
L 34.183254 20.307692 
L 33.230769 19.38631 
L 31.846629 18.461538 
L 31.384615 17.928665 
L 29.538462 17.473188 
L 28.95033 18.461538 
L 27.692308 20.028961 
L 27.585345 20.307692 
L 26.40419 22.153846 
L 25.846154 22.778357 
L 24.919334 24 
L 24 24.957145 
L 23.083491 25.846154 
L 22.153846 26.679747 
L 20.739547 27.692308 
L 20.307692 28.047262 
L 18.461538 29.215784 
L 17.769161 29.538462 
L 16.615385 30.736479 
L 16.055871 31.384615 
L 16.188963 33.230769 
L 16.615385 34.267325 
L 16.844548 35.076923 
L 17.536724 36.923077 
L 18.150707 38.769231 
L 18.461538 39.937225 
L 18.64207 40.615385 
L 19.006119 42.461538 
L 19.204761 44.307692 
L 19.225241 46.153846 
L 19.052824 48 
L 18.651941 49.846154 
L 18.461538 50.479228 
L 18.125731 51.692308 
L 17.555369 53.538462 
L 17.141455 55.384615 
L 18.461538 57.063663 
L 20.307692 56.195554 
L 21.292097 55.384615 
L 22.153846 54.761348 
L 23.511667 53.538462 
L 24 53.165247 
L 25.664018 51.692308 
L 25.846154 51.553533 
L 27.692308 50.021556 
L 27.920255 49.846154 
L 29.538462 48.766073 
L 31.116703 48 
L 31.384615 47.890691 
L 33.230769 47.424393 
L 35.076923 47.303263 
L 36.923077 47.496424 
L 38.762829 48 
L 38.769231 48.001998 
L 40.615385 48.888787 
L 42.024126 49.846154 
L 42.461538 50.186375 
L 44.161516 51.692308 
L 44.307692 51.82342 
L 46.153846 53.428705 
L 46.297314 53.538462 
L 48 54.75264 
L 48.998068 55.384615 
L 49.846154 55.920467 
L 51.692308 56.999274 
z
M 24 44.658547 
L 23.757709 44.307692 
L 22.767406 42.461538 
L 22.153846 40.921088 
L 22.070369 40.615385 
L 21.599365 38.769231 
L 21.238242 36.923077 
L 21.105614 35.076923 
L 21.391132 33.230769 
L 22.153846 31.708927 
L 22.316685 31.384615 
L 23.809439 29.538462 
L 24 29.354375 
L 25.645061 27.692308 
L 25.846154 27.500039 
L 27.692308 25.904721 
L 27.786748 25.846154 
L 29.538462 24.724096 
L 31.384615 24.259429 
L 33.230769 24.452563 
L 35.076923 25.094778 
L 36.689237 25.846154 
L 36.923077 25.946779 
L 38.769231 26.804364 
L 40.615385 27.576201 
L 40.966038 27.692308 
L 42.461538 28.279449 
L 44.307692 28.944494 
L 45.730801 29.538462 
L 46.153846 29.909451 
L 47.126286 31.384615 
L 47.259216 33.230769 
L 47.082264 35.076923 
L 46.822678 36.923077 
L 46.552475 38.769231 
L 46.289917 40.615385 
L 46.153846 41.599943 
L 45.971941 42.461538 
L 45.271893 44.307692 
L 44.307692 45.169708 
L 42.461538 45.265286 
L 40.615385 45.020353 
L 38.769231 44.74323 
L 36.923077 44.518827 
L 35.076923 44.389106 
L 33.230769 44.384876 
L 31.384615 44.52764 
L 29.538462 44.814841 
L 27.692308 45.179002 
L 25.846154 45.379558 
z
" style="fill:#ffffbf;"/>
   </g>
   <g id="PathCollection_4">
    <path clip-path="url(#pb957f2680f)" d="M 23.757709 44.307692 
L 24 44.658547 
L 25.846154 45.379558 
L 27.692308 45.179002 
L 29.538462 44.814841 
L 31.384615 44.52764 
L 33.230769 44.384876 
L 35.076923 44.389106 
L 36.923077 44.518827 
L 38.769231 44.74323 
L 40.615385 45.020353 
L 42.461538 45.265286 
L 44.307692 45.169708 
L 45.271893 44.307692 
L 45.971941 42.461538 
L 46.153846 41.599943 
L 46.289917 40.615385 
L 46.552475 38.769231 
L 46.822678 36.923077 
L 47.082264 35.076923 
L 47.259216 33.230769 
L 47.126286 31.384615 
L 46.153846 29.909451 
L 45.730801 29.538462 
L 44.307692 28.944494 
L 42.461538 28.279449 
L 40.966038 27.692308 
L 40.615385 27.576201 
L 38.769231 26.804364 
L 36.923077 25.946779 
L 36.689237 25.846154 
L 35.076923 25.094778 
L 33.230769 24.452563 
L 31.384615 24.259429 
L 29.538462 24.724096 
L 27.786748 25.846154 
L 27.692308 25.904721 
L 25.846154 27.500039 
L 25.645061 27.692308 
L 24 29.354375 
L 23.809439 29.538462 
L 22.316685 31.384615 
L 22.153846 31.708927 
L 21.391132 33.230769 
L 21.105614 35.076923 
L 21.238242 36.923077 
L 21.599365 38.769231 
L 22.070369 40.615385 
L 22.153846 40.921088 
L 22.767406 42.461538 
z
M 29.538462 40.714889 
L 29.214292 40.615385 
L 27.692308 39.908744 
L 26.478004 38.769231 
L 25.846154 37.556257 
L 25.614825 36.923077 
L 25.472424 35.076923 
L 25.846154 33.43565 
L 25.89723 33.230769 
L 26.983257 31.384615 
L 27.692308 30.583522 
L 28.890295 29.538462 
L 29.538462 29.089183 
L 31.384615 28.400644 
L 33.230769 28.340349 
L 35.076923 28.760672 
L 36.923077 29.466552 
L 37.078121 29.538462 
L 38.769231 30.44799 
L 40.33007 31.384615 
L 40.615385 31.632274 
L 42.142746 33.230769 
L 42.461538 33.994549 
L 42.821468 35.076923 
L 42.830764 36.923077 
L 42.461538 38.338784 
L 42.307872 38.769231 
L 40.636577 40.615385 
L 40.615385 40.62838 
L 38.769231 41.179264 
L 36.923077 41.329481 
L 35.076923 41.308368 
L 33.230769 41.205203 
L 31.384615 41.031405 
z
" style="fill:#fdae61;"/>
   </g>
   <g id="PathCollection_5">
    <path clip-path="url(#pb957f2680f)" d="M 29.214292 40.615385 
L 29.538462 40.714889 
L 31.384615 41.031405 
L 33.230769 41.205203 
L 35.076923 41.308368 
L 36.923077 41.329481 
L 38.769231 41.179264 
L 40.615385 40.62838 
L 40.636577 40.615385 
L 42.307872 38.769231 
L 42.461538 38.338784 
L 42.830764 36.923077 
L 42.821468 35.076923 
L 42.461538 33.994549 
L 42.142746 33.230769 
L 40.615385 31.632274 
L 40.33007 31.384615 
L 38.769231 30.44799 
L 37.078121 29.538462 
L 36.923077 29.466552 
L 35.076923 28.760672 
L 33.230769 28.340349 
L 31.384615 28.400644 
L 29.538462 29.089183 
L 28.890295 29.538462 
L 27.692308 30.583522 
L 26.983257 31.384615 
L 25.89723 33.230769 
L 25.846154 33.43565 
L 25.472424 35.076923 
L 25.614825 36.923077 
L 25.846154 37.556257 
L 26.478004 38.769231 
L 27.692308 39.908744 
z
" style="fill:#d7191c;"/>
   </g>
   <g id="PathCollection_6">
    <path clip-path="url(#pb957f2680f)" d="M 55.741014 70.153846 
L 57.230769 70.695719 
L 59.076923 70.960554 
L 60.923077 70.903882 
L 62.769231 70.496011 
L 63.541065 70.153846 
L 64.615385 69.595755 
L 65.970977 68.307692 
L 66.461538 67.549842 
L 67.003768 66.461538 
L 67.494078 64.615385 
L 67.664386 62.769231 
L 67.584483 60.923077 
L 67.220675 59.076923 
L 66.461538 57.298364 
L 66.434978 57.230769 
L 65.26001 55.384615 
L 64.615385 54.687691 
L 63.628284 53.538462 
L 62.769231 52.670711 
L 61.918736 51.692308 
L 60.923077 50.499227 
L 60.451316 49.846154 
L 59.298408 48 
L 59.076923 47.572856 
L 58.391182 46.153846 
L 57.656341 44.307692 
L 57.230769 42.912715 
L 57.091544 42.461538 
L 56.757486 40.615385 
L 56.716545 38.769231 
L 57.01012 36.923077 
L 57.230769 36.278027 
L 57.650137 35.076923 
L 58.615677 33.230769 
L 59.076923 32.554514 
L 59.947903 31.384615 
L 60.923077 30.296577 
L 61.719996 29.538462 
L 62.769231 28.623498 
L 64.054866 27.692308 
L 64.615385 27.268132 
L 66.461538 26.049878 
L 66.807522 25.846154 
L 68.307692 24.678868 
L 69.136142 24 
L 70.153846 22.624035 
L 70.47518 22.153846 
L 71.132886 20.307692 
L 71.304707 18.461538 
L 71.063384 16.615385 
L 70.290471 14.769231 
L 70.153846 14.583532 
L 68.680563 12.923077 
L 68.307692 12.647206 
L 66.461538 11.581948 
L 65.058694 11.076923 
L 64.615385 10.930833 
L 62.769231 10.62933 
L 60.923077 10.715846 
L 59.685294 11.076923 
L 59.076923 11.233963 
L 57.230769 12.124199 
L 56.068404 12.923077 
L 55.384615 13.348326 
L 53.538462 14.67224 
L 53.40536 14.769231 
L 51.692308 15.90795 
L 50.481577 16.615385 
L 49.846154 16.971589 
L 48 17.76177 
L 46.153846 18.234596 
L 44.307692 18.295069 
L 42.461538 17.811718 
L 40.615385 16.635634 
L 40.594039 16.615385 
L 39.034924 14.769231 
L 38.769231 14.36337 
L 37.981636 12.923077 
L 37.178028 11.076923 
L 36.923077 10.388624 
L 36.488654 9.230769 
L 35.834507 7.384615 
L 35.119276 5.538462 
L 35.076923 5.439338 
L 34.043047 3.692308 
L 33.230769 2.766361 
L 31.781986 1.846154 
L 31.384615 1.661599 
L 29.538462 1.169902 
L 27.692308 0.948373 
L 25.846154 0.893972 
L 24 0.981973 
L 22.153846 1.245747 
L 20.307692 1.81736 
L 20.252292 1.846154 
L 18.589185 3.692308 
L 18.461538 4.6413 
L 18.384702 5.538462 
L 18.461538 5.969137 
L 18.698908 7.384615 
L 19.233653 9.230769 
L 19.812772 11.076923 
L 20.307692 12.810794 
L 20.340326 12.923077 
L 20.73063 14.769231 
L 20.856392 16.615385 
L 20.595071 18.461538 
L 20.307692 19.151488 
L 19.659537 20.307692 
L 18.461538 21.441729 
L 16.950405 22.153846 
L 16.615385 22.276042 
L 14.769231 22.492824 
L 12.923077 22.369323 
L 11.725973 22.153846 
L 11.076923 22.042946 
L 9.230769 21.649367 
L 7.384615 21.274053 
L 5.538462 21.031973 
L 3.692308 21.122962 
L 1.846154 22.011014 
L 1.712697 22.153846 
L 0.774598 24 
L 0.41804 25.846154 
L 0.361747 27.692308 
L 0.551261 29.538462 
L 1.057773 31.384615 
L 1.846154 32.79321 
L 2.175713 33.230769 
L 3.692308 34.459674 
L 4.735713 35.076923 
L 5.538462 35.446479 
L 7.384615 36.271225 
L 8.657948 36.923077 
L 9.230769 37.224546 
L 11.076923 38.564643 
L 11.282241 38.769231 
L 12.662029 40.615385 
L 12.923077 41.216276 
L 13.352478 42.461538 
L 13.547085 44.307692 
L 13.322226 46.153846 
L 12.923077 47.344142 
L 12.666287 48 
L 11.581146 49.846154 
L 11.076923 50.564429 
L 10.141397 51.692308 
L 9.230769 52.866669 
L 8.621241 53.538462 
L 7.430009 55.384615 
L 7.384615 55.523357 
L 6.727146 57.230769 
L 6.732671 59.076923 
L 7.384615 60.754245 
L 7.444607 60.923077 
L 8.757466 62.769231 
L 9.230769 63.226465 
L 10.770764 64.615385 
L 11.076923 64.855179 
L 12.923077 66.120492 
L 13.576636 66.461538 
L 14.769231 67.143257 
L 16.615385 67.808624 
L 18.461538 67.975777 
L 20.307692 67.391321 
L 21.317212 66.461538 
L 22.153846 65.698772 
L 22.903708 64.615385 
L 24 63.142225 
L 24.236021 62.769231 
L 25.592651 60.923077 
L 25.846154 60.616005 
L 27.183504 59.076923 
L 27.692308 58.538977 
L 29.123129 57.230769 
L 29.538462 56.857629 
L 31.384615 55.538764 
L 31.712847 55.384615 
L 33.230769 54.659889 
L 35.076923 54.343187 
L 36.923077 54.645241 
L 38.515599 55.384615 
L 38.769231 55.500731 
L 40.615385 56.715426 
L 41.296697 57.230769 
L 42.461538 58.06088 
L 43.823828 59.076923 
L 44.307692 59.440746 
L 46.153846 60.8959 
L 46.186872 60.923077 
L 48 62.620758 
L 48.152953 62.769231 
L 49.761712 64.615385 
L 49.846154 64.732976 
L 51.241572 66.461538 
L 51.692308 67.066499 
L 52.932837 68.307692 
L 53.538462 68.910965 
L 55.384615 70.034735 
z
" style="fill:none;stroke:#000000;stroke-width:0.5;"/>
   </g>
   <g id="PathCollection_7">
    <path clip-path="url(#pb957f2680f)" d="M 54.744934 64.615385 
L 55.384615 65.083812 
L 57.230769 65.877137 
L 59.076923 66.083742 
L 60.923077 65.591272 
L 62.168267 64.615385 
L 62.769231 63.741362 
L 63.19023 62.769231 
L 63.39289 60.923077 
L 63.070086 59.076923 
L 62.769231 58.397083 
L 62.223383 57.230769 
L 60.975683 55.384615 
L 60.923077 55.320377 
L 59.535349 53.538462 
L 59.076923 52.938865 
L 58.203482 51.692308 
L 57.230769 50.113174 
L 57.074592 49.846154 
L 56.087329 48 
L 55.384615 46.526554 
L 55.199534 46.153846 
L 54.391863 44.307692 
L 53.755238 42.461538 
L 53.538462 41.408203 
L 53.374251 40.615385 
L 53.328996 38.769231 
L 53.538462 37.501621 
L 53.63481 36.923077 
L 54.267907 35.076923 
L 55.191967 33.230769 
L 55.384615 32.922069 
L 56.359019 31.384615 
L 57.230769 30.225306 
L 57.777026 29.538462 
L 59.076923 28.076755 
L 59.458142 27.692308 
L 60.923077 26.254445 
L 61.394993 25.846154 
L 62.769231 24.531509 
L 63.370868 24 
L 64.615385 22.540944 
L 64.947853 22.153846 
L 65.834771 20.307692 
L 65.988441 18.461538 
L 65.255569 16.615385 
L 64.615385 15.95499 
L 62.769231 14.888145 
L 61.91839 14.769231 
L 60.923077 14.66881 
L 60.36404 14.769231 
L 59.076923 15.008857 
L 57.230769 15.768922 
L 55.694367 16.615385 
L 55.384615 16.787729 
L 53.538462 17.937192 
L 52.670158 18.461538 
L 51.692308 19.054123 
L 49.846154 20.026676 
L 49.184451 20.307692 
L 48 20.829925 
L 46.153846 21.366392 
L 44.307692 21.571422 
L 42.461538 21.3739 
L 40.615385 20.70576 
L 39.946288 20.307692 
L 38.769231 19.458836 
L 37.724481 18.461538 
L 36.923077 17.460141 
L 36.309677 16.615385 
L 35.317788 14.769231 
L 35.076923 14.207378 
L 34.493749 12.923077 
L 33.761123 11.076923 
L 33.230769 9.768336 
L 32.953986 9.230769 
L 31.81958 7.384615 
L 31.384615 6.832871 
L 29.722707 5.538462 
L 29.538462 5.428113 
L 27.692308 4.907215 
L 25.846154 4.910557 
L 24 5.518217 
L 23.971766 5.538462 
L 22.830363 7.384615 
L 22.73234 9.230769 
L 23.017903 11.076923 
L 23.400498 12.923077 
L 23.734369 14.769231 
L 23.915461 16.615385 
L 23.833957 18.461538 
L 23.354522 20.307692 
L 22.331126 22.153846 
L 22.153846 22.36956 
L 20.453768 24 
L 20.307692 24.112935 
L 18.461538 25.064378 
L 16.615385 25.507823 
L 14.769231 25.588054 
L 12.923077 25.445682 
L 11.076923 25.208545 
L 9.230769 25.019932 
L 7.384615 25.105594 
L 5.669896 25.846154 
L 5.538462 26.021305 
L 4.929453 27.692308 
L 5.228213 29.538462 
L 5.538462 30.05001 
L 6.53366 31.384615 
L 7.384615 32.057542 
L 9.018122 33.230769 
L 9.230769 33.349532 
L 11.076923 34.481824 
L 11.812067 35.076923 
L 12.923077 35.990397 
L 13.734561 36.923077 
L 14.769231 38.403145 
L 14.969774 38.769231 
L 15.731743 40.615385 
L 16.164315 42.461538 
L 16.297936 44.307692 
L 16.142652 46.153846 
L 15.691085 48 
L 14.919131 49.846154 
L 14.769231 50.129421 
L 13.884964 51.692308 
L 12.923077 53.23162 
L 12.716792 53.538462 
L 11.740417 55.384615 
L 11.222035 57.230769 
L 11.393022 59.076923 
L 12.404837 60.923077 
L 12.923077 61.459222 
L 14.742594 62.769231 
L 14.769231 62.784589 
L 16.615385 63.31118 
L 18.461538 63.167644 
L 19.255493 62.769231 
L 20.307692 62.19957 
L 21.663316 60.923077 
L 22.153846 60.458203 
L 23.341712 59.076923 
L 24 58.360635 
L 24.998413 57.230769 
L 25.846154 56.334997 
L 26.783716 55.384615 
L 27.692308 54.49132 
L 28.763646 53.538462 
L 29.538462 52.864602 
L 31.210689 51.692308 
L 31.384615 51.579108 
L 33.230769 50.795794 
L 35.076923 50.533254 
L 36.923077 50.792831 
L 38.769231 51.55792 
L 38.978365 51.692308 
L 40.615385 52.823371 
L 41.459892 53.538462 
L 42.461538 54.362742 
L 43.650805 55.384615 
L 44.307692 55.909059 
L 45.994216 57.230769 
L 46.153846 57.35258 
L 48 58.75025 
L 48.427306 59.076923 
L 49.846154 60.264828 
L 50.610324 60.923077 
L 51.692308 61.9713 
L 52.566157 62.769231 
L 53.538462 63.704945 
z
" style="fill:none;stroke:#000000;stroke-width:0.5;"/>
   </g>
   <g id="PathCollection_8">
    <path clip-path="url(#pb957f2680f)" d="M 52.180864 57.230769 
L 53.538462 57.977107 
L 55.384615 58.854805 
L 56.526962 57.230769 
L 55.874928 55.384615 
L 55.384615 54.281025 
L 55.072346 53.538462 
L 54.234582 51.692308 
L 53.538462 50.061484 
L 53.440906 49.846154 
L 52.512264 48 
L 51.692308 46.22832 
L 51.654062 46.153846 
L 50.808769 44.307692 
L 50.251303 42.461538 
L 49.985846 40.615385 
L 50.005183 38.769231 
L 50.28609 36.923077 
L 50.804762 35.076923 
L 51.562234 33.230769 
L 51.692308 32.958434 
L 52.494157 31.384615 
L 53.538462 29.70017 
L 53.643055 29.538462 
L 54.846541 27.692308 
L 55.384615 26.88342 
L 56.147493 25.846154 
L 57.230769 24.303756 
L 57.471298 24 
L 58.244733 22.153846 
L 57.230769 21.122244 
L 55.384615 21.457939 
L 53.538462 22.099973 
L 53.421151 22.153846 
L 51.692308 23.010267 
L 49.846154 23.731269 
L 49.041031 24 
L 48 24.370532 
L 46.153846 24.789184 
L 44.307692 24.912812 
L 42.461538 24.725764 
L 40.615385 24.220294 
L 40.096475 24 
L 38.769231 23.389774 
L 36.923077 22.290414 
L 36.698528 22.153846 
L 35.076923 20.912473 
L 34.183254 20.307692 
L 33.230769 19.38631 
L 31.846629 18.461538 
L 31.384615 17.928665 
L 29.538462 17.473188 
L 28.95033 18.461538 
L 27.692308 20.028961 
L 27.585345 20.307692 
L 26.40419 22.153846 
L 25.846154 22.778357 
L 24.919334 24 
L 24 24.957145 
L 23.083491 25.846154 
L 22.153846 26.679747 
L 20.739547 27.692308 
L 20.307692 28.047262 
L 18.461538 29.215784 
L 17.769161 29.538462 
L 16.615385 30.736479 
L 16.055871 31.384615 
L 16.188963 33.230769 
L 16.615385 34.267325 
L 16.844548 35.076923 
L 17.536724 36.923077 
L 18.150707 38.769231 
L 18.461538 39.937225 
L 18.64207 40.615385 
L 19.006119 42.461538 
L 19.204761 44.307692 
L 19.225241 46.153846 
L 19.052824 48 
L 18.651941 49.846154 
L 18.461538 50.479228 
L 18.125731 51.692308 
L 17.555369 53.538462 
L 17.141455 55.384615 
L 18.461538 57.063663 
L 20.307692 56.195554 
L 21.292097 55.384615 
L 22.153846 54.761348 
L 23.511667 53.538462 
L 24 53.165247 
L 25.664018 51.692308 
L 25.846154 51.553533 
L 27.692308 50.021556 
L 27.920255 49.846154 
L 29.538462 48.766073 
L 31.116703 48 
L 31.384615 47.890691 
L 33.230769 47.424393 
L 35.076923 47.303263 
L 36.923077 47.496424 
L 38.762829 48 
L 38.769231 48.001998 
L 40.615385 48.888787 
L 42.024126 49.846154 
L 42.461538 50.186375 
L 44.161516 51.692308 
L 44.307692 51.82342 
L 46.153846 53.428705 
L 46.297314 53.538462 
L 48 54.75264 
L 48.998068 55.384615 
L 49.846154 55.920467 
L 51.692308 56.999274 
z
" style="fill:none;stroke:#000000;stroke-width:0.5;"/>
   </g>
   <g id="PathCollection_9">
    <path clip-path="url(#pb957f2680f)" d="M 23.757709 44.307692 
L 24 44.658547 
L 25.846154 45.379558 
L 27.692308 45.179002 
L 29.538462 44.814841 
L 31.384615 44.52764 
L 33.230769 44.384876 
L 35.076923 44.389106 
L 36.923077 44.518827 
L 38.769231 44.74323 
L 40.615385 45.020353 
L 42.461538 45.265286 
L 44.307692 45.169708 
L 45.271893 44.307692 
L 45.971941 42.461538 
L 46.153846 41.599943 
L 46.289917 40.615385 
L 46.552475 38.769231 
L 46.822678 36.923077 
L 47.082264 35.076923 
L 47.259216 33.230769 
L 47.126286 31.384615 
L 46.153846 29.909451 
L 45.730801 29.538462 
L 44.307692 28.944494 
L 42.461538 28.279449 
L 40.966038 27.692308 
L 40.615385 27.576201 
L 38.769231 26.804364 
L 36.923077 25.946779 
L 36.689237 25.846154 
L 35.076923 25.094778 
L 33.230769 24.452563 
L 31.384615 24.259429 
L 29.538462 24.724096 
L 27.786748 25.846154 
L 27.692308 25.904721 
L 25.846154 27.500039 
L 25.645061 27.692308 
L 24 29.354375 
L 23.809439 29.538462 
L 22.316685 31.384615 
L 22.153846 31.708927 
L 21.391132 33.230769 
L 21.105614 35.076923 
L 21.238242 36.923077 
L 21.599365 38.769231 
L 22.070369 40.615385 
L 22.153846 40.921088 
L 22.767406 42.461538 
z
" style="fill:none;stroke:#000000;stroke-width:0.5;"/>
   </g>
   <g id="PathCollection_10">
    <path clip-path="url(#pb957f2680f)" d="M 29.214292 40.615385 
L 29.538462 40.714889 
L 31.384615 41.031405 
L 33.230769 41.205203 
L 35.076923 41.308368 
L 36.923077 41.329481 
L 38.769231 41.179264 
L 40.615385 40.62838 
L 40.636577 40.615385 
L 42.307872 38.769231 
L 42.461538 38.338784 
L 42.830764 36.923077 
L 42.821468 35.076923 
L 42.461538 33.994549 
L 42.142746 33.230769 
L 40.615385 31.632274 
L 40.33007 31.384615 
L 38.769231 30.44799 
L 37.078121 29.538462 
L 36.923077 29.466552 
L 35.076923 28.760672 
L 33.230769 28.340349 
L 31.384615 28.400644 
L 29.538462 29.089183 
L 28.890295 29.538462 
L 27.692308 30.583522 
L 26.983257 31.384615 
L 25.89723 33.230769 
L 25.846154 33.43565 
L 25.472424 35.076923 
L 25.614825 36.923077 
L 25.846154 37.556257 
L 26.478004 38.769231 
L 27.692308 39.908744 
z
" style="fill:none;stroke:#000000;stroke-width:0.5;"/>
   </g>
   <g id="PathCollection_11"/>
  </g>
 </g>
 <defs>
  <clipPath id="pb957f2680f">
   <rect height="72" width="72" x="0" y="0"/>
  </clipPath>
 </defs>
</svg>
